# Blender v2.79 (sub 0) OBJ File: 'Crystals.blend'
# www.blender.org
mtllib Crystals.mtl
o Cylinder.012_Cylinder.014
v -0.627202 0.419445 0.858491
v -0.666466 0.467562 0.950520
v -0.622408 0.431131 0.985888
v -0.498636 0.305171 0.898817
v -0.701867 0.425846 0.959250
v -0.665209 0.410434 1.007126
v -0.503419 0.301700 0.836358
v -0.760318 0.287870 0.873455
v -0.666099 0.106971 0.988286
v -0.416155 -0.101211 0.796274
v -0.494790 -0.312359 0.476312
v -0.640315 0.307781 0.787380
v -0.643011 0.326021 0.797138
v -0.359321 -0.312359 0.528340
v -0.659643 0.318431 0.805689
v -0.366146 -0.312359 0.680136
v -0.637543 -0.312359 0.586303
v -0.766601 0.237608 0.862172
v -0.551984 -0.130716 0.891466
v -0.366606 -0.312359 0.690360
v -0.644827 -0.312359 0.748323
v -0.720560 0.010369 0.910207
v -0.509359 -0.312359 0.800352
v -0.076512 -0.312359 0.543503
v -0.360873 1.677467 0.393662
v -0.782847 2.510327 0.161836
v -0.823883 2.328733 0.138118
v -0.893689 1.993331 0.097653
v -0.564190 -0.312359 0.271280
v 0.130438 -0.312360 0.432347
v 0.159776 1.446748 0.149099
v 0.035831 2.314061 -0.333594
v -0.480647 2.950829 -0.362582
v -0.689097 2.682980 -0.024819
v -0.894612 1.999787 0.083976
v -0.839436 1.613686 -0.407917
v -0.564190 -0.312360 -0.262880
v 0.411165 -0.312360 0.281566
v 0.411165 -0.312360 -0.252594
v 0.040805 2.279258 -0.447751
v -0.196257 2.587932 -0.578701
v -0.511601 2.971933 -0.415924
v -0.704402 1.965649 -0.533965
v -0.368077 1.727880 -0.678454
v -0.076513 -0.312360 -0.524817
v -0.510465 2.968822 -0.422031
v 0.710616 -0.312359 0.937040
v 0.996240 0.415592 1.159657
v 0.898891 0.595946 1.101501
v 0.585477 -0.312359 0.852693
v 0.745057 -0.312359 0.960253
v 0.927717 0.625695 1.122160
v 0.921671 0.588788 0.983943
v 0.610726 -0.312359 0.737096
v 0.929887 -0.312359 0.952216
v 1.157816 0.348201 1.133160
v 1.149802 0.401448 1.148893
v 1.155517 0.809975 1.063586
v 1.163887 0.811311 1.037704
v 1.169777 0.772169 1.026138
v 0.795556 -0.312359 0.729059
v 0.955136 -0.312359 0.836619
v 1.191864 0.373699 1.024547
v 0.307762 -0.312359 0.913278
v 0.507124 0.472169 1.299298
v 0.424240 0.721078 1.278611
v 0.161626 -0.312359 0.770118
v 0.453898 -0.312359 0.804446
v 0.618851 0.336764 1.123841
v 0.616478 0.575079 1.287969
v 0.438066 0.775486 1.273472
v 0.450930 0.826108 1.108005
v 0.448951 0.818320 1.074466
v 0.161626 -0.312359 0.518126
v 0.453898 -0.312359 0.552454
v 0.633048 0.392631 0.899338
v 0.455400 0.836972 1.082371
v 0.603403 1.057085 1.122109
v 0.657739 1.064870 1.086946
v 0.307762 -0.312359 0.409294
v 0.423475 -0.312359 0.522651
v 0.665221 0.995093 1.055746
v 0.627612 0.905032 1.258207
v 0.556494 0.923230 1.257952
v 0.324711 -0.312359 0.411400
v -0.640944 -0.312360 -0.334171
v -0.877854 0.153612 -0.494819
v -0.690059 -0.312360 -0.334743
v -0.596758 -0.312360 -0.433614
v -0.840366 0.166783 -0.598803
v -1.062654 0.273637 -0.537641
v -0.764720 -0.312360 -0.335613
v -0.628416 -0.312360 -0.473742
v -1.006437 0.325432 -0.554535
v -1.089543 0.169978 -0.602788
v -0.812069 -0.312360 -0.395629
v -0.676350 -0.312360 -0.534500
v -1.031360 0.385898 -0.775231
v -1.017746 0.436005 -0.742958
v -1.114883 0.287645 -0.599645
v -0.844311 -0.312360 -0.436498
v -0.800126 -0.312360 -0.535942
v -1.031207 0.142147 -0.692637
v -1.031883 0.437838 -0.716793
v -1.068680 0.417216 -0.722343
v -1.037635 0.415035 -0.774452
v -0.814597 -0.312360 -0.268846
v -1.554906 1.258691 -0.186003
v -1.561067 1.305492 -0.169971
v -1.513531 1.325278 -0.120400
v -1.202339 0.824852 -0.082452
v -0.666463 -0.312360 -0.142418
v -1.014114 -0.312359 -0.218923
v -1.552056 0.829236 -0.158726
v -1.589970 1.286837 -0.074493
v -1.525603 1.317078 -0.072764
v -1.433097 1.064494 0.123162
v -1.222654 0.758921 0.090421
v -0.717846 -0.312360 0.033932
v -1.065497 -0.312359 -0.042572
v -1.606630 0.836007 0.017982
v -1.631510 1.025008 0.082724
v -1.523749 0.974486 0.151711
v -0.917363 -0.312359 0.083855
v 0.618669 -0.312360 -0.135429
v 1.081824 1.353980 -0.122989
v 1.363771 1.515180 -0.262387
v 0.855811 -0.312360 -0.276030
v 0.619040 -0.312360 0.146107
v 1.130375 1.527323 0.159841
v 1.200205 1.598008 0.190147
v 1.570080 1.724013 -0.172852
v 1.562620 1.376076 -0.122491
v 1.093324 -0.312360 -0.135096
v 0.766288 -0.312360 0.234238
v 1.224251 1.002498 0.299417
v 1.560659 1.785672 -0.026888
v 1.542284 1.301574 0.158489
v 1.093695 -0.312360 0.146441
v 0.857942 -0.312360 0.288631
v 1.542181 1.480685 0.189404
v 0.946278 -0.312360 0.236282
v -0.430652 -0.312360 -0.507427
v -0.571914 0.607853 -0.836678
v -0.717193 0.723078 -1.023413
v -0.558243 -0.312360 -0.652935
v -0.273957 -0.312360 -0.599677
v -0.389830 0.442461 -0.869752
v -0.497677 0.705428 -0.924114
v -0.719079 0.759372 -1.066507
v -0.685529 0.684055 -1.219180
v -0.677728 0.655592 -1.237025
v -0.529138 -0.312360 -0.890692
v -0.244852 -0.312360 -0.837436
v -0.343599 0.330902 -1.067594
v -0.678907 0.675213 -1.245124
v -0.491980 -0.312360 -0.912569
v -0.266697 -0.312360 -0.862348
v -0.523910 0.833963 -1.388340
v -0.577108 0.900243 -1.180271
v -0.648564 0.886048 -1.189289
v -0.614134 0.896352 -1.382367
v -0.558102 0.897066 -1.415675
v -0.372443 -0.312360 -0.982943
v -0.354532 -0.312360 -0.979467
v -0.946987 -0.312359 0.221969
v -1.138058 0.485845 0.620574
v -1.140377 0.504631 0.630548
v -1.076381 0.727369 0.773686
v -1.011721 0.735960 0.796121
v -0.760779 -0.312359 0.272614
v -1.163944 -0.312359 0.385903
v -1.329938 0.381082 0.732192
v -1.315775 0.436689 0.739201
v -1.165314 0.492859 0.643402
v -1.224662 0.587243 0.824215
v -0.981601 0.665537 0.783945
v -0.750748 -0.312360 0.290001
v -1.194694 -0.312359 0.600483
v -1.299600 0.125888 0.819334
v -1.218648 0.230607 0.900463
v -1.180094 0.568228 0.883656
v -0.879455 0.054958 0.670624
v -0.788208 -0.312359 0.464021
v -1.008486 -0.312359 0.651129
v -1.081297 -0.008189 0.803024
v -0.791528 -0.312359 0.487194
v 0.352130 -0.312360 -0.815413
v 0.306556 0.036618 -1.070299
v 0.124875 0.157283 -0.949098
v 0.186206 -0.312360 -0.606082
v 0.349208 -0.312360 -0.840400
v 0.013736 0.369592 -1.116299
v -0.082798 0.264326 -1.055459
v -0.007487 -0.312360 -0.634260
v 0.339590 -0.312360 -1.034428
v 0.247613 0.420761 -1.565316
v -0.115738 0.303923 -1.321889
v -0.035257 -0.312360 -0.871769
v 0.324359 -0.312360 -1.052922
v 0.222567 0.467111 -1.622231
v 0.062876 0.496978 -1.427933
v -0.098439 0.332349 -1.369159
v 0.037802 0.248960 -1.466399
v 0.060953 0.221463 -1.470993
v 0.130666 -0.312360 -1.081101
v 0.060943 0.238896 -1.483397
v 0.154950 0.453478 -1.622369
v 0.010571 0.459605 -1.469749
v 0.379176 -0.312360 -0.629526
v 0.677438 0.395291 -0.738570
v 0.747396 0.302233 -0.882430
v 0.488356 -0.312360 -0.787725
v 0.471408 -0.312360 -0.467272
v 0.801799 0.471520 -0.588063
v 0.786219 0.558573 -0.693433
v 1.068429 0.586041 -0.922109
v 0.689770 -0.312360 -0.783671
v 0.629806 -0.312360 -0.464083
v 0.848329 0.104048 -0.527383
v 0.932320 0.462483 -0.583966
v 0.949227 0.084397 -0.682554
v 0.764128 -0.312360 -0.652860
v 0.672820 -0.312360 -0.463217
v 1.041486 0.661301 -0.832296
v 1.128900 0.622042 -0.847968
v 0.782001 -0.312360 -0.621416
v 1.104328 0.638573 -0.807904
v 1.095366 0.626474 -0.910932
v -0.180029 -0.312359 0.977816
v -0.109262 0.129750 1.138272
v -0.077645 0.138743 1.032585
v -0.149852 -0.312359 0.868865
v -0.154827 -0.312359 1.005745
v -0.061023 0.215527 1.207646
v 0.065309 0.345715 1.087016
v -0.040027 -0.312359 0.848179
v -0.100381 -0.312359 1.066082
v -0.027246 0.144539 1.231905
v 0.090962 0.008384 1.052854
v 0.018610 -0.312359 0.913160
v -0.014552 -0.312359 1.049916
v 0.052185 -0.045339 1.142307
v 0.048752 0.161734 1.224350
v 0.053015 0.351441 1.157633
v 0.105449 0.352102 1.132684
v 0.039621 -0.312359 0.936445
v 0.009444 -0.312359 1.045397
v 0.077254 0.366955 1.104195
v 0.094887 0.344106 1.159373
vn 0.6775 0.7297 -0.0924
vn -0.2748 0.6737 0.6860
vn 0.5480 -0.0765 0.8330
vn 0.9776 0.2094 0.0230
vn 0.3138 0.4835 -0.8171
vn -0.5915 0.2463 -0.7677
vn -0.5465 0.3308 -0.7694
vn -0.6232 0.5444 -0.5615
vn -0.7989 -0.0349 0.6005
vn 0.9773 0.2073 0.0439
vn -0.9773 -0.2073 -0.0439
vn -0.3138 -0.4835 0.8171
vn 0.5915 -0.2463 0.7677
vn 0.0000 -1.0000 0.0000
vn -0.4874 -0.0039 0.8732
vn 0.4690 0.1328 0.8732
vn 0.5370 0.4675 0.7022
vn -0.9382 0.2441 -0.2455
vn -0.9711 0.1837 0.1522
vn -0.9899 -0.1415 0.0000
vn 0.9899 0.1415 -0.0000
vn 0.7770 0.6287 -0.0332
vn -0.2750 0.8287 0.4875
vn -0.9378 0.2425 -0.2485
vn -0.9221 0.2472 -0.2975
vn -0.4690 -0.1328 -0.8732
vn 0.4874 0.0039 -0.8732
vn 0.8129 0.5661 -0.1372
vn 0.7272 0.6669 -0.1629
vn 0.7502 0.6351 -0.1840
vn -0.9394 0.2015 -0.2774
vn -0.9262 0.2312 -0.2979
vn -0.2910 0.1615 -0.9430
vn -0.2732 0.1645 -0.9478
vn -0.9393 0.2117 -0.2701
vn -0.5586 -0.0343 0.8287
vn -0.9085 0.3678 -0.1984
vn 0.0417 -0.2773 0.9599
vn 0.0870 0.2025 0.9754
vn -0.0417 0.2773 -0.9599
vn 0.9085 -0.3678 0.1984
vn -0.6459 0.7442 -0.1705
vn 0.5586 0.0343 -0.8287
vn 0.9494 0.0514 0.3097
vn -0.6895 -0.1711 0.7038
vn 0.5242 -0.4795 0.7038
vn 0.0192 0.0892 0.9958
vn -0.9692 0.2463 -0.0000
vn 0.9692 -0.2463 0.0000
vn 0.9943 -0.0539 0.0921
vn -0.9419 0.3351 -0.0222
vn -0.5241 0.4795 -0.7038
vn 0.6895 0.1711 -0.7038
vn -0.8017 0.5694 0.1819
vn 0.1122 0.4156 -0.9026
vn 0.7414 0.1313 -0.6581
vn 0.6363 0.4911 0.5949
vn -0.0110 0.3209 0.9471
vn 0.7820 0.5174 0.3475
vn 0.7719 0.1825 -0.6090
vn -0.7719 -0.1825 0.6090
vn -0.4696 0.6896 0.5513
vn 0.0110 -0.3209 -0.9471
vn 0.6964 0.6364 0.3317
vn -0.8497 -0.1697 -0.4991
vn -0.7820 -0.5174 -0.3475
vn -0.4332 0.8521 -0.2938
vn 0.6135 0.3270 -0.7188
vn -0.2423 -0.0631 -0.9682
vn -0.9554 -0.0250 -0.2941
vn -0.4258 0.9036 0.0476
vn 0.8795 0.4009 0.2563
vn -0.8795 -0.4009 -0.2563
vn -0.2692 0.5268 0.8062
vn 0.8018 0.5208 0.2929
vn 0.2423 0.0631 0.9682
vn -0.6135 -0.3270 0.7188
vn -0.5045 0.1466 -0.8509
vn -0.9635 0.2678 0.0013
vn 0.5057 -0.1342 -0.8522
vn -0.5888 0.7302 -0.3465
vn 0.9635 -0.2678 -0.0013
vn -0.5058 0.1339 0.8522
vn -0.5087 0.1351 0.8503
vn 0.1181 0.3383 0.9336
vn 0.9975 -0.0114 0.0692
vn 0.5144 -0.1490 0.8445
vn 0.5042 -0.1475 0.8509
vn -0.7465 0.1196 0.6546
vn 0.4733 0.3603 0.8039
vn -0.2269 0.7400 0.6332
vn -0.9741 -0.1922 -0.1192
vn 0.9741 0.1922 0.1192
vn 0.9251 0.3798 0.0020
vn -0.9261 0.2153 -0.3097
vn -0.9697 -0.1406 -0.1996
vn -0.4733 -0.3603 -0.8039
vn 0.7465 -0.1196 -0.6546
vn 0.9301 0.3641 0.0483
vn 0.7964 -0.0954 -0.5972
vn 0.8829 0.4629 0.0783
vn -0.9695 0.1827 -0.1631
vn 0.1814 -0.3065 -0.9344
vn 0.5595 0.8204 -0.1183
vn -0.1969 0.9803 0.0172
vn 0.4238 0.5435 0.7246
vn 0.2305 0.4783 -0.8474
vn -0.5843 0.2463 -0.7733
vn -0.5522 0.3368 -0.7627
vn -0.6275 0.5794 -0.5202
vn -0.0889 0.5101 0.8555
vn 0.7879 0.4156 -0.4545
vn -0.9765 -0.1639 -0.1399
vn -0.7756 0.1194 0.6198
vn 0.9701 0.1235 0.2088
vn -0.2305 -0.4783 0.8474
vn 0.5233 -0.0466 0.8509
vn 0.9765 0.1639 0.1399
vn 0.5843 -0.2463 0.7733
vn 0.6849 0.4860 0.5429
vn 0.9922 0.0448 -0.1160
vn 0.6723 0.6421 0.3685
vn -0.1177 0.5756 0.8092
vn 0.9948 0.0891 -0.0493
vn 0.6548 0.6329 0.4132
vn -0.6666 0.7209 0.1896
vn -0.9922 -0.0448 0.1160
vn 0.7255 -0.3416 -0.5975
vn 0.5817 0.7167 0.3847
vn -0.6849 -0.4860 -0.5429
vn 0.1177 -0.5756 -0.8092
vn -0.1493 0.7335 0.6631
vn 0.3549 0.9340 -0.0409
vn -0.6152 -0.0920 -0.7830
vn -0.6479 -0.4418 -0.6205
vn -0.7234 -0.1231 -0.6794
vn -0.3385 0.8713 -0.3553
vn -0.7967 0.2511 -0.5498
vn -0.7950 0.4047 0.4519
vn -0.5592 0.5452 -0.6246
vn 0.0199 -0.1604 -0.9868
vn -0.0199 0.1604 0.9868
vn 0.0336 0.7729 0.6336
vn 0.7950 -0.4047 -0.4519
vn 0.7967 -0.2511 0.5498
vn 0.8273 -0.1068 0.5515
vn 0.3845 0.9123 -0.1406
vn -0.9347 0.2436 -0.2589
vn -0.7367 -0.1234 0.6648
vn -0.1727 0.3603 -0.9167
vn -0.7368 -0.1234 0.6648
vn 0.7368 0.1234 -0.6648
vn -0.7853 0.5910 -0.1846
vn 0.1727 -0.3603 0.9167
vn 0.0188 0.3313 0.9433
vn 0.9347 -0.2436 0.2589
vn 0.9349 -0.1172 0.3349
vn 0.1488 0.9295 0.3374
usemtl Material.001
s off
f 2//1 3//1 4//1 7//1 1//1
f 6//2 3//2 2//2 5//2
f 6//3 9//3 19//3 10//3 4//3 3//3
f 4//4 10//4 16//4 14//4 7//4
f 11//5 12//5 13//5 1//5 7//5 14//5
f 17//6 18//6 8//6 15//6 12//6 11//6
f 15//7 13//7 12//7
f 13//8 15//8 8//8 5//8 2//8 1//8
f 9//9 6//9 5//9 8//9 18//9 22//9
f 16//10 10//10 20//10
f 21//11 22//11 18//11 17//11
f 23//12 19//12 9//12 22//12 21//12
f 20//13 10//13 19//13 23//13
f 17//14 11//14 14//14 16//14 20//14 23//14 21//14
f 24//15 25//15 26//15 27//15 28//15 29//15
f 30//16 31//16 25//16 24//16
f 32//17 33//17 34//17 26//17 25//17 31//17
f 27//18 26//18 34//18
f 27//19 35//19 28//19
f 29//20 28//20 35//20 36//20 37//20
f 38//16 31//16 30//16
f 39//21 40//21 32//21 31//21 38//21
f 33//22 32//22 41//22
f 42//23 34//23 33//23
f 34//24 35//24 27//24
f 43//25 36//25 35//25
f 37//26 36//26 43//26 44//26 45//26
f 45//27 44//27 41//27 40//27 39//27
f 32//28 40//28 41//28
f 33//29 41//29 46//29
f 46//30 42//30 33//30
f 34//31 42//31 46//31
f 34//32 43//32 35//32
f 46//33 44//33 43//33
f 46//34 41//34 44//34
f 43//35 34//35 46//35
f 30//14 24//14 29//14 37//14 45//14 39//14 38//14
f 51//36 48//36 47//36
f 52//36 49//36 50//36 47//36 48//36
f 50//37 49//37 53//37 54//37
f 55//38 56//38 57//38 48//38 51//38
f 57//39 58//39 52//39 48//39
f 54//40 53//40 59//40 60//40 61//40
f 62//41 63//41 56//41 55//41
f 59//42 53//42 49//42 52//42 58//42
f 61//43 60//43 63//43 62//43
f 63//44 60//44 59//44 58//44 57//44 56//44
f 51//14 47//14 50//14 54//14 61//14 62//14 55//14
f 64//45 65//45 66//45 67//45
f 68//46 69//46 70//46 65//46 64//46
f 65//47 70//47 83//47 84//47 71//47 66//47
f 67//48 66//48 71//48 72//48 73//48 74//48
f 75//49 76//49 69//49 68//49
f 69//50 76//50 82//50 83//50 70//50
f 72//51 77//51 73//51
f 74//52 73//52 77//52 78//52 79//52 80//52
f 81//53 76//53 75//53
f 78//54 77//54 72//54 71//54 84//54
f 80//55 79//55 82//55 85//55
f 85//56 82//56 76//56 81//56
f 79//57 78//57 84//57 83//57 82//57
f 74//14 80//14 85//14 81//14 75//14 68//14 64//14 67//14
f 86//58 87//58 88//58
f 89//59 90//59 87//59 86//59
f 88//58 87//58 94//58 91//58 92//58
f 93//60 90//60 89//60
f 92//61 91//61 100//61 95//61 96//61
f 91//62 94//62 104//62 105//62 100//62
f 96//61 95//61 101//61
f 102//63 103//63 98//63 97//63
f 104//64 94//64 87//64 90//64 99//64
f 95//65 100//65 105//65 106//65 98//65 103//65
f 101//66 95//66 103//66 102//66
f 106//60 99//60 90//60 93//60 97//60 98//60
f 104//67 99//67 106//67 105//67
f 102//14 97//14 93//14 89//14 86//14 88//14 92//14 96//14 101//14
f 107//68 108//68 109//68 110//68 111//68 112//68
f 113//69 114//69 108//69 107//69
f 109//70 108//70 114//70 121//70 122//70 115//70
f 116//71 110//71 109//71 115//71
f 112//72 111//72 118//72 119//72
f 120//73 121//73 114//73 113//73
f 116//74 115//74 122//74 123//74 117//74
f 116//75 117//75 118//75 111//75 110//75
f 119//76 118//76 117//76 123//76 124//76
f 124//77 123//77 122//77 121//77 120//77
f 112//14 119//14 124//14 120//14 113//14 107//14
f 125//78 126//78 127//78 128//78
f 129//79 130//79 126//79 125//79
f 128//80 127//80 132//80 133//80 134//80
f 130//81 131//81 137//81 132//81 127//81 126//81
f 134//82 133//82 138//82 139//82
f 140//83 136//83 135//83
f 131//84 130//84 129//84 135//84 136//84
f 131//85 136//85 141//85 137//85
f 138//86 133//86 132//86 137//86 141//86
f 139//87 138//87 141//87 136//87 142//87
f 142//88 136//88 140//88
f 134//14 139//14 142//14 140//14 135//14 129//14 125//14 128//14
f 143//89 144//89 145//89 146//89
f 147//90 148//90 149//90 144//90 143//90
f 145//91 144//91 149//91
f 146//92 145//92 150//92 151//92 152//92 153//92
f 154//93 155//93 148//93 147//93
f 149//94 148//94 155//94
f 149//91 150//91 145//91
f 150//95 156//95 151//95
f 151//96 156//96 152//96
f 153//97 152//97 157//97
f 158//98 155//98 154//98
f 149//99 155//99 159//99
f 149//91 160//91 150//91
f 156//95 150//95 161//95
f 152//97 156//97 162//97
f 157//97 152//97 163//97 164//97
f 165//100 159//100 155//100 158//100
f 149//101 159//101 160//101
f 160//91 161//91 150//91
f 161//102 162//102 156//102
f 152//97 162//97 163//97
f 164//103 163//103 159//103 165//103
f 159//104 162//104 160//104
f 162//105 161//105 160//105
f 159//106 163//106 162//106
f 146//14 153//14 157//14 164//14 165//14 158//14 154//14 147//14 143//14
f 166//107 167//107 168//107 169//107 170//107 171//107
f 172//108 173//108 174//108 175//108 167//108 166//108
f 175//109 168//109 167//109
f 169//110 168//110 175//110 174//110 176//110
f 170//111 169//111 176//111 182//111 177//111
f 171//112 170//112 177//112 178//112
f 179//113 180//113 173//113 172//113
f 181//114 182//114 176//114 174//114 173//114 180//114
f 178//115 177//115 183//115 184//115
f 185//116 186//116 181//116 180//116 179//116
f 182//117 181//117 186//117 183//117 177//117
f 184//118 183//118 187//118
f 187//119 183//119 186//119 185//119
f 172//14 166//14 171//14 178//14 184//14 187//14 185//14 179//14
f 188//120 189//120 190//120 191//120
f 192//121 189//121 188//121
f 193//122 190//122 189//122
f 191//123 190//123 193//123 194//123 195//123
f 196//124 197//124 189//124 192//124
f 193//125 189//125 197//125
f 198//126 194//126 193//126
f 195//127 194//127 198//127 199//127
f 200//128 201//128 197//128 196//128
f 193//129 197//129 202//129
f 193//126 203//126 198//126
f 199//130 198//130 203//130 204//130 205//130 206//130
f 206//131 205//131 207//131 208//131 201//131 200//131
f 197//132 201//132 208//132
f 193//126 202//126 203//126
f 197//133 208//133 202//133
f 204//134 203//134 209//134
f 204//135 207//135 205//135
f 209//136 208//136 207//136
f 202//126 209//126 203//126
f 208//137 209//137 202//137
f 209//134 207//134 204//134
f 188//14 191//14 195//14 199//14 206//14 200//14 196//14 192//14
f 210//138 211//138 212//138 213//138
f 214//139 215//139 216//139 211//139 210//139
f 216//140 212//140 211//140
f 213//141 212//141 217//141 218//141
f 219//142 220//142 215//142 214//142
f 216//143 215//143 221//143
f 217//140 212//140 216//140
f 218//144 217//144 222//144 223//144
f 224//142 220//142 219//142
f 220//142 221//142 215//142
f 221//143 225//143 216//143
f 216//140 225//140 217//140
f 217//144 226//144 222//144
f 223//144 222//144 227//144
f 227//145 222//145 220//145 224//145
f 221//146 220//146 222//146
f 221//143 228//143 225//143
f 225//140 229//140 217//140
f 217//144 229//144 226//144
f 221//146 222//146 226//146
f 226//146 228//146 221//146
f 228//147 226//147 229//147 225//147
f 213//14 218//14 223//14 227//14 224//14 219//14 214//14 210//14
f 230//148 231//148 232//148 233//148
f 234//149 231//149 230//149
f 233//150 232//150 236//150 237//150
f 238//151 239//151 235//151 231//151 234//151
f 237//152 236//152 249//152 246//152 240//152 241//152
f 236//153 232//153 231//153 235//153 245//153 249//153
f 241//152 240//152 247//152
f 248//154 243//154 242//154
f 244//154 239//154 238//154 242//154 243//154
f 239//155 244//155 250//155 245//155 235//155
f 247//156 240//156 243//156 248//156
f 243//157 240//157 246//157 250//157 244//157
f 250//158 246//158 249//158 245//158
f 247//14 248//14 242//14 238//14 234//14 230//14 233//14 237//14 241//14
